<?xml version="1.0" standalone="no"?>
<!DOCTYPE svg PUBLIC "-//W3C//DTD SVG 20010904//EN"
 "http://www.w3.org/TR/2001/REC-SVG-20010904/DTD/svg10.dtd">
<svg version="1.0" xmlns="http://www.w3.org/2000/svg"
 width="163.000000pt" height="163.000000pt" viewBox="0 0 163.000000 163.000000"
 preserveAspectRatio="xMidYMid meet">
<metadata>
Created by potrace 1.11, written by Peter Selinger 2001-2013
</metadata>
<g transform="translate(0.000000,163.000000) scale(0.100000,-0.100000)"
fill="#000000" stroke="none">
<path d="M1245 1600 c-66 -21 -137 -75 -161 -122 l-15 -29 -41 36 c-52 48
-107 72 -194 85 -90 14 -174 1 -309 -46 -289 -102 -305 -106 -410 -109 l-100
-3 2 -43 c2 -24 7 -123 13 -219 18 -326 31 -805 25 -912 l-7 -107 32 -55 c17
-31 36 -58 41 -62 5 -3 59 6 120 21 282 67 620 74 877 19 69 -15 77 -15 160 5
103 24 223 41 298 41 48 0 54 2 54 21 0 21 -3 21 -92 15 -51 -4 -144 -16 -207
-27 -117 -20 -136 -17 -129 17 4 23 155 74 288 98 52 10 105 20 118 22 l22 4
0 291 c0 322 3 311 -64 240 -22 -23 -39 -31 -65 -32 -20 -1 -47 -4 -61 -8 -18
-5 -35 0 -59 16 -38 26 -106 47 -127 39 -19 -7 -18 -74 2 -133 14 -40 15 -58
5 -108 -13 -72 -3 -116 33 -154 24 -25 24 -27 10 -81 -8 -30 -14 -66 -14 -81
0 -21 -7 -29 -42 -42 -23 -9 -44 -15 -47 -12 -2 3 -8 63 -12 133 -5 70 -16
214 -25 321 l-17 195 43 38 c76 68 225 96 388 73 43 -6 52 -4 52 9 0 21 -55
31 -180 31 -120 0 -181 -17 -260 -70 -28 -19 -50 -29 -50 -24 0 5 -12 118 -26
251 -29 269 -27 286 26 350 17 20 55 49 86 64 48 23 68 27 142 27 73 0 166
-15 245 -39 12 -4 17 0 17 14 0 15 -14 22 -72 37 -110 27 -239 29 -313 5z
m-307 -96 l57 -29 -50 -6 c-142 -16 -247 -127 -291 -305 -26 -110 -22 -258 15
-483 25 -152 32 -220 30 -313 l-2 -118 -29 0 c-16 0 -31 6 -33 13 -5 15 -67
1238 -63 1242 2 2 35 10 73 19 106 24 220 16 293 -20z m-398 -59 c0 -54 47
-1008 55 -1117 l5 -78 -61 0 c-79 0 -245 -25 -358 -53 l-88 -22 -7 345 c-6
335 -20 672 -32 796 l-5 61 93 5 c79 4 116 13 238 56 80 27 148 51 153 51 4 1
7 -19 7 -44z m518 -416 c30 -27 34 -37 42 -112 6 -45 10 -97 10 -114 0 -31 -1
-32 -25 -21 -14 6 -28 8 -31 5 -13 -13 7 -38 36 -43 25 -6 30 -11 30 -37 l0
-30 -74 5 c-123 8 -196 67 -196 160 0 19 10 65 23 102 l23 67 17 -35 c9 -20
23 -36 30 -36 7 0 26 27 42 60 16 33 31 60 34 60 3 0 21 -14 39 -31z m72 -415
l0 -35 -28 20 c-16 11 -35 27 -42 36 -11 13 -7 15 29 15 40 0 41 -1 41 -36z
m-81 -17 c20 -17 49 -41 64 -53 22 -15 28 -27 25 -48 l-3 -27 -60 39 c-33 22
-73 52 -90 66 -29 25 -29 26 -11 41 27 21 34 19 75 -18z m-69 -62 c23 -19 68
-51 101 -71 35 -22 61 -46 64 -58 8 -43 13 -226 5 -226 -4 0 -43 9 -87 20 -43
11 -126 27 -183 36 -58 9 -106 17 -108 19 -8 7 33 165 53 205 22 44 85 110
104 110 5 0 28 -16 51 -35z m-84 -340 c130 -21 247 -54 261 -72 28 -36 15 -39
-89 -21 -57 10 -173 21 -258 24 -220 9 -362 -6 -655 -72 -15 -4 -25 5 -42 35
-13 22 -20 42 -15 44 34 20 253 66 371 77 109 11 313 4 427 -15z"/>
<path d="M287 1340 c-46 -9 -84 -35 -115 -81 -34 -49 -27 -119 17 -162 28 -29
37 -32 89 -31 32 0 70 7 87 16 27 15 31 14 67 -8 62 -40 76 -30 52 39 -14 42
-14 48 0 69 21 30 20 56 -4 95 -32 53 -110 79 -193 63z m134 -53 c40 -26 51
-74 24 -101 -14 -13 -15 -22 -6 -46 11 -33 9 -35 -18 -18 -14 9 -28 8 -62 -6
-99 -40 -174 -8 -174 73 0 98 146 159 236 98z"/>
<path d="M350 1260 c0 -6 7 -13 15 -16 9 -4 15 -19 15 -35 0 -42 26 -37 34 6
4 20 4 40 1 45 -8 13 -65 13 -65 0z"/>
<path d="M232 1231 c-39 -53 -23 -86 17 -35 l21 27 0 -25 c0 -14 7 -31 15 -38
11 -9 19 -7 40 14 32 32 33 50 1 42 -20 -5 -25 -2 -28 16 -5 35 -40 34 -66 -1z"/>
<path d="M350 1004 c-14 -2 -62 -9 -107 -15 -56 -7 -92 -18 -109 -32 -25 -20
-26 -24 -21 -91 5 -58 11 -75 30 -91 13 -12 27 -40 33 -65 5 -24 14 -45 20
-47 6 -2 26 18 43 46 l32 49 102 7 c105 8 146 17 159 38 4 7 8 42 8 78 0 82
-17 107 -80 120 -46 8 -66 9 -110 3z m138 -50 c18 -13 22 -25 22 -74 0 -32 -4
-61 -8 -64 -5 -3 -60 -10 -123 -17 -125 -13 -144 -19 -154 -49 -8 -26 -25 -26
-25 -1 0 11 -9 26 -20 34 -37 26 -52 106 -26 142 27 37 289 61 334 29z"/>
<path d="M266 922 c-8 -14 19 -82 33 -82 5 0 17 10 25 22 14 19 16 19 22 5 8
-23 34 -21 34 2 0 10 -9 29 -20 42 l-21 24 -15 -22 -16 -23 -17 22 c-12 14
-20 17 -25 10z"/>
<path d="M217 904 c-4 -4 -7 -14 -7 -22 0 -8 -8 -21 -17 -28 -17 -12 -17 -13
1 -20 27 -10 52 9 48 37 -4 28 -15 42 -25 33z"/>
<path d="M400 895 c0 -8 9 -15 19 -15 10 0 21 -7 25 -15 10 -26 26 -16 26 15
0 28 -3 30 -35 30 -24 0 -35 -5 -35 -15z"/>
<path d="M282 629 c-51 -26 -82 -67 -89 -119 -15 -111 87 -172 206 -124 38 15
40 15 81 -12 54 -36 69 -23 45 39 -16 42 -16 47 -1 68 24 34 20 73 -11 110
-52 61 -150 78 -231 38z m141 -20 c70 -19 99 -78 61 -120 -13 -15 -14 -24 -5
-50 l11 -31 -25 16 c-22 14 -27 14 -67 -4 -80 -36 -142 -22 -168 39 -9 23 -9
38 -1 64 14 42 38 65 88 83 47 16 58 17 106 3z"/>
<path d="M382 548 c-7 -7 -12 -19 -12 -27 0 -11 -5 -9 -16 7 -17 25 -46 29
-64 7 -15 -18 -3 -37 19 -30 10 3 24 -1 31 -10 18 -22 47 -18 61 8 7 12 16 25
22 28 12 8 0 29 -17 29 -6 0 -17 -5 -24 -12z"/>
<path d="M987 940 c-15 -22 -23 -23 -77 -9 -26 7 -16 -25 13 -41 24 -13 30
-13 54 0 35 20 51 46 36 61 -8 8 -15 5 -26 -11z"/>
<path d="M1320 1519 c-82 -37 -122 -90 -122 -164 0 -24 6 -53 12 -65 10 -18 8
-28 -14 -59 -25 -36 -33 -61 -19 -61 3 0 30 8 59 17 43 13 58 14 79 5 14 -7
35 -12 45 -12 11 0 37 -18 58 -39 42 -43 53 -47 150 -55 51 -5 62 -3 62 9 0
12 -14 15 -62 15 -100 0 -179 50 -101 65 53 10 106 39 137 75 23 28 26 40 26
109 0 76 -1 77 -37 114 -69 67 -184 86 -273 46z m211 -32 c101 -54 118 -159
37 -234 -56 -52 -160 -68 -239 -37 -32 13 -48 15 -75 6 l-34 -10 16 27 c15 25
15 30 0 59 -37 71 -3 147 89 195 48 25 152 22 206 -6z"/>
<path d="M1290 1405 c0 -30 20 -48 37 -34 9 8 13 8 13 0 0 -17 27 -13 34 6 6
14 8 14 21 -3 13 -18 14 -17 15 13 0 38 -18 53 -35 30 -15 -20 -25 -22 -25 -4
0 8 -12 14 -30 14 -24 0 -30 -5 -30 -22z"/>
<path d="M1450 1413 c0 -32 16 -48 33 -35 8 7 22 10 31 6 18 -7 21 3 7 25 -5
8 -18 12 -30 8 -12 -3 -21 -1 -21 4 0 5 -4 9 -10 9 -5 0 -10 -8 -10 -17z"/>
<path d="M1317 1323 c-10 -9 -9 -43 2 -43 5 0 11 6 14 13 6 17 -7 40 -16 30z"/>
<path d="M1470 1321 c-12 -9 -12 -11 2 -16 10 -4 21 -4 27 -1 5 4 12 2 16 -4
3 -5 -3 -10 -14 -10 -12 0 -21 -5 -21 -11 0 -6 12 -9 28 -7 21 2 27 8 27 28 0
19 -6 26 -25 28 -14 1 -32 -2 -40 -7z"/>
<path d="M1360 1306 c0 -22 18 -39 31 -30 8 5 22 7 32 6 20 -4 23 13 5 25 -20
12 -68 12 -68 -1z"/>
<path d="M1615 1198 c-4 -10 -4 -26 0 -35 8 -17 8 -17 12 0 3 9 3 25 0 35 -4
16 -4 16 -12 0z"/>
</g>
</svg>
